<?xml version="1.0" encoding="UTF-8" standalone="no"?>
<svg
   xmlns:osb="http://www.openswatchbook.org/uri/2009/osb"
   xmlns:dc="http://purl.org/dc/elements/1.1/"
   xmlns:cc="http://creativecommons.org/ns#"
   xmlns:rdf="http://www.w3.org/1999/02/22-rdf-syntax-ns#"
   xmlns:svg="http://www.w3.org/2000/svg"
   xmlns="http://www.w3.org/2000/svg"
   id="svg8"
   version="1.1"
   viewBox="0 0 79.374999 26.458334"
   height="100"
   width="300">
  <defs
     id="defs2">
    <linearGradient
       osb:paint="solid"
       id="linearGradient19071">
      <stop
         id="stop19069"
         offset="0"
         style="stop-color:#ffffff;stop-opacity:1;" />
    </linearGradient>
  </defs>
  <metadata
     id="metadata5">
    <rdf:RDF>
      <cc:Work
         rdf:about="">
        <dc:format>image/svg+xml</dc:format>
        <dc:type
           rdf:resource="http://purl.org/dc/dcmitype/StillImage" />
        <dc:title></dc:title>
      </cc:Work>
    </rdf:RDF>
  </metadata>
  <g
     transform="translate(0,-270.54165)"
     id="layer1">
    <path
       id="path933-7-9-4-8"
       d="m 4.1603866,273.94848 c 0,0 2.7480677,0.18113 3.5838007,1.61207 0.835758,1.43094 0.798141,2.16946 0.715728,2.50807 -1.209333,-0.0896 -1.297365,-0.004 -2.545592,-1.03787 -1.2482896,-1.03372 -1.7538936,-3.08228 -1.7538936,-3.08228 z"
       style="opacity:1;vector-effect:none;fill:#008000;fill-opacity:1;fill-rule:evenodd;stroke:#f9f9f9;stroke-width:0.02197652;stroke-linecap:butt;stroke-linejoin:miter;stroke-miterlimit:4;stroke-dasharray:none;stroke-dashoffset:0;stroke-opacity:1" />
    <path
       id="path926-2-3-3-9"
       d="m 13.028928,276.29969 c 1.623562,-0.43094 3.435777,-4.4619 3.435777,-4.4619 0,0 -3.189845,-0.44511 -5.031557,0.78151 -1.841683,1.22663 -1.6999259,3.25113 -1.6999259,3.25113 1.3216649,0.44058 1.6721239,0.86016 3.2957059,0.42926 z"
       style="opacity:1;vector-effect:none;fill:#008000;fill-opacity:1;fill-rule:evenodd;stroke:#f9f9f9;stroke-width:0.01276923;stroke-linecap:butt;stroke-linejoin:miter;stroke-miterlimit:4;stroke-dasharray:none;stroke-dashoffset:0;stroke-opacity:1" />
    <path
       id="path1585-7-7-5"
       d="m 4.9199942,277.11911 c -9.94599,8.19884 0.5035199,22.75531 6.4066098,18.84581 3.216373,-2.13016 3.351386,-2.2353 3.82614,-5.13919 0.294728,-1.8028 -0.116311,-4.93845 -0.696757,-7.10927 -0.580391,-2.17084 -2.768857,-9.93493 -3.764352,-5.15706 -0.29548,1.41816 -0.8649877,3.30992 -2.5162717,4.91058 -0.976145,-1.42019 -1.266033,-2.79859 -2.106329,-4.80507 -0.08267,-0.72799 -0.7969292,-1.59187 -1.1490401,-1.5458 z"
       style="opacity:1;vector-effect:none;fill:#000000;fill-opacity:1;fill-rule:evenodd;stroke:#f9f9f9;stroke-width:0.01661777;stroke-linecap:butt;stroke-linejoin:miter;stroke-miterlimit:4;stroke-dasharray:none;stroke-dashoffset:0;stroke-opacity:1" />
    <path
       id="rect1803-7-1-0"
       d="m 276.67041,66.090271 h 4.52946 v 1.023438 h -4.52946 z"
       style="opacity:1;fill:#ffffff;fill-opacity:1;stroke:#f9f9f9;stroke-width:0.01739668;stroke-linecap:butt;stroke-linejoin:miter;stroke-miterlimit:4;stroke-dasharray:none;stroke-opacity:1"
       transform="rotate(75.334651)" />
    <path
       id="path1717-8-3-6"
       d="m 9.0670463,294.02218 a 4.8229575,1.7203368 0 0 0 4.5668167,-1.17349 v -1.0935 a 4.8229575,1.7203368 0 0 1 -4.5607657,1.16549 4.8229575,1.7203368 0 0 1 -4.5662054,-1.17296 v 1.10894 a 4.8229575,1.7203368 0 0 0 4.5601544,1.16552 z m 0,-1.36659 a 4.8229575,1.7203368 0 0 0 4.5668167,-1.17347 v -1.09352 a 4.8229575,1.7203368 0 0 1 -4.5607657,1.16551 4.8229575,1.7203368 0 0 1 -4.5662054,-1.17297 v 1.10893 a 4.8229575,1.7203368 0 0 0 4.5601544,1.16552 z m 0,-1.36664 a 4.8229575,1.7203366 0 0 0 4.5668167,-1.17343 v -1.0935 a 4.8229575,1.7203366 0 0 1 -4.5607657,1.16546 4.8229575,1.7203366 0 0 1 -4.5662054,-1.17294 v 1.10897 a 4.8229575,1.7203366 0 0 0 4.5601544,1.16544 z m 0.02961,-1.48653 a 4.5703822,1.6293295 0 0 0 4.5698357,-1.62904 4.5703822,1.6293295 0 0 0 -4.5698357,-1.62962 4.5703822,1.6293295 0 0 0 -4.5704328,1.62962 4.5703822,1.6293295 0 0 0 4.5704328,1.62904 z"
       style="opacity:1;vector-effect:none;fill:#ffffff;fill-opacity:1;fill-rule:evenodd;stroke:#f9f9f9;stroke-width:0.01340981;stroke-linecap:butt;stroke-linejoin:miter;stroke-miterlimit:4;stroke-dasharray:none;stroke-dashoffset:0;stroke-opacity:1" />
    <path
       id="path1786-9-9-0"
       d="m 184.73211,215.6875 a 1.19943,1.19943 0 0 1 -1.19943,1.19943 1.19943,1.19943 0 0 1 -1.19943,-1.19943 1.19943,1.19943 0 0 1 1.19943,-1.19943 1.19943,1.19943 0 0 1 1.19943,1.19943 z"
       style="opacity:1;vector-effect:none;fill:#ffffff;fill-opacity:1;fill-rule:evenodd;stroke:#f9f9f9;stroke-width:0.02593203;stroke-linecap:butt;stroke-linejoin:miter;stroke-miterlimit:4;stroke-dasharray:none;stroke-dashoffset:0;stroke-opacity:1"
       transform="rotate(37.91509)" />
    <path
       id="path1786-3-8-9-8"
       d="m 178.5954,220.77531 a 1.19943,1.19943 0 0 1 -1.19943,1.19943 1.19943,1.19943 0 0 1 -1.19943,-1.19943 1.19943,1.19943 0 0 1 1.19943,-1.19943 1.19943,1.19943 0 0 1 1.19943,1.19943 z"
       style="opacity:1;vector-effect:none;fill:#ffffff;fill-opacity:1;fill-rule:evenodd;stroke:#f9f9f9;stroke-width:0.02593203;stroke-linecap:butt;stroke-linejoin:miter;stroke-miterlimit:4;stroke-dasharray:none;stroke-dashoffset:0;stroke-opacity:1"
       transform="rotate(37.91509)" />
    <path
       id="rect1803-8-8-3-3"
       d="m 11.093444,285.42861 -5.1685997,0.25658 -0.3601879,-1.03032 5.3720636,-0.3526 z"
       style="opacity:1;fill:#ffffff;fill-opacity:1;stroke:#f9f9f9;stroke-width:0.01605725;stroke-linecap:butt;stroke-linejoin:miter;stroke-miterlimit:4;stroke-dasharray:none;stroke-opacity:1" />
    <path
       id="rect1803-8-3-5-2-7"
       d="m -240.35684,-189.39899 h 2.88732 v 1.10075 h -2.88732 z"
       style="opacity:1;fill:#ffffff;fill-opacity:1;stroke:#f9f9f9;stroke-width:0.01440467;stroke-linecap:butt;stroke-linejoin:miter;stroke-miterlimit:4;stroke-dasharray:none;stroke-opacity:1"
       transform="matrix(-0.67186915,-0.74066987,0.82518014,-0.56486966,0,0)" />
    <path
       id="rect1803-8-8-3-3-8"
       d="m 11.705055,282.83254 -1.391348,1.82621 0.779737,0.76986 1.477376,-1.918 z"
       style="opacity:1;fill:#ffffff;fill-opacity:1;stroke:#f9f9f9;stroke-width:0.0173178;stroke-linecap:butt;stroke-linejoin:miter;stroke-miterlimit:4;stroke-dasharray:none;stroke-opacity:1" />
    <path
       id="path918-2"
       d="m 9.1300583,271.17972 c -1.022979,-0.22202 -4.6257814,-0.15852 -2.7682,0.62826 1.573762,0.4616 2.387597,0.86955 2.66945,1.5281 0.281854,0.65858 0.138949,2.0335 -0.306293,3.14666 -0.445237,1.1132 -1.592152,1.81662 -1.071331,3.93323 0.5208,2.11657 0.681298,3.44453 0.458222,5.55216 -0.118935,1.12381 -0.309218,1.89558 -0.294334,2.39396 l 1.685818,-0.14132 c 0.165673,-0.5856 0.197844,-1.3913 0.303966,-2.17245 0.1958147,-1.44124 -0.612333,-5.27479 -0.643484,-6.33338 -0.03114,-1.05855 0.446922,-1.6639 0.8600627,-2.38171 0.413148,-0.71776 1.021662,-2.61854 0.720215,-4.04999 -0.301443,-1.43146 -0.591163,-1.88148 -1.6141437,-2.10351 z"
       style="opacity:1;vector-effect:none;fill:#000000;fill-opacity:1;fill-rule:evenodd;stroke:#ffffff;stroke-width:0.50193584;stroke-linecap:butt;stroke-linejoin:miter;stroke-miterlimit:4;stroke-dasharray:none;stroke-dashoffset:0;stroke-opacity:1" />
    <text
       id="text19791"
       y="266.07333"
       x="-8.4285059"
       style="font-style:normal;font-variant:normal;font-weight:300;font-stretch:normal;font-size:10.58333302px;line-height:125%;font-family:'URW Bookman';-inkscape-font-specification:'URW Bookman, Light';font-variant-ligatures:normal;font-variant-caps:normal;font-variant-numeric:normal;font-feature-settings:normal;text-align:center;letter-spacing:0px;word-spacing:0px;writing-mode:lr-tb;text-anchor:middle;fill:#000000;fill-opacity:1;stroke:none;stroke-width:0.26458332px;stroke-linecap:butt;stroke-linejoin:miter;stroke-opacity:1"
       xml:space="preserve"><tspan
         style="stroke-width:0.26458332px"
         y="274.9845"
         x="-8.4285059"
         id="tspan19789" /></text>
    <g
       id="text19851"
       style="font-style:normal;font-variant:normal;font-weight:300;font-stretch:normal;font-size:13.1174202px;line-height:125%;font-family:'URW Bookman';-inkscape-font-specification:'URW Bookman, Light';font-variant-ligatures:normal;font-variant-caps:normal;font-variant-numeric:normal;font-feature-settings:normal;text-align:center;letter-spacing:0px;word-spacing:0px;writing-mode:lr-tb;text-anchor:middle;fill:#000000;fill-opacity:1;stroke:none;stroke-width:0.32793552px;stroke-linecap:butt;stroke-linejoin:miter;stroke-opacity:1"
       aria-label="Reposeed">
      <path
         id="path835"
         style="font-style:normal;font-variant:normal;font-weight:bold;font-stretch:normal;font-size:13.1174202px;font-family:'DejaVu Sans Mono';-inkscape-font-specification:'DejaVu Sans Mono, Bold';font-variant-ligatures:normal;font-variant-caps:normal;font-variant-numeric:normal;font-feature-settings:normal;text-align:center;writing-mode:lr-tb;text-anchor:middle;fill:#000000;fill-opacity:1;stroke-width:0.32793552px"
         d="m 21.576837,282.87413 q 0.281819,0.0577 0.486779,0.26901 0.211365,0.20496 0.512399,0.80703 l 1.729347,3.43948 h -2.075216 l -1.152899,-2.41468 q -0.05124,-0.10248 -0.134504,-0.28182 -0.505995,-1.08245 -1.191329,-1.08245 h -0.602069 v 3.77895 H 17.259873 V 277.827 h 2.728526 q 1.844637,0 2.645261,0.65331 0.807029,0.65331 0.807029,2.12645 0,0.98637 -0.480374,1.56923 -0.480375,0.58285 -1.383478,0.69814 z m -2.427492,-3.45869 v 2.60683 h 0.890294 q 0.775004,0 1.108063,-0.30104 0.339465,-0.30744 0.339465,-1.00558 0,-0.69815 -0.33306,-0.99918 -0.333059,-0.30103 -1.114468,-0.30103 z" />
      <path
         id="path837"
         style="font-style:normal;font-variant:normal;font-weight:bold;font-stretch:normal;font-size:13.1174202px;font-family:'DejaVu Sans Mono';-inkscape-font-specification:'DejaVu Sans Mono, Bold';font-variant-ligatures:normal;font-variant-caps:normal;font-variant-numeric:normal;font-feature-settings:normal;text-align:center;writing-mode:lr-tb;text-anchor:middle;fill:#000000;fill-opacity:1;stroke-width:0.32793552px"
         d="m 31.357257,287.03737 q -0.653309,0.26901 -1.332238,0.40352 -0.678929,0.1345 -1.434718,0.1345 -1.799802,0 -2.754146,-0.96075 -0.947938,-0.96715 -0.947938,-2.77976 0,-1.75497 0.915913,-2.77336 0.915914,-1.0184 2.497947,-1.0184 1.594842,0 2.472326,0.94794 0.883889,0.94154 0.883889,2.65807 v 0.7622 h -4.861388 q 0.0064,0.84546 0.499589,1.26178 0.493184,0.41633 1.473148,0.41633 0.646904,0 1.274593,-0.18575 0.627689,-0.18574 1.313023,-0.58926 z m -1.588438,-4.03514 q -0.01281,-0.74298 -0.384299,-1.12087 -0.365084,-0.3843 -1.082443,-0.3843 -0.646904,0 -1.031204,0.39711 -0.384299,0.3907 -0.454754,1.11447 z" />
      <path
         id="path839"
         style="font-style:normal;font-variant:normal;font-weight:bold;font-stretch:normal;font-size:13.1174202px;font-family:'DejaVu Sans Mono';-inkscape-font-specification:'DejaVu Sans Mono, Bold';font-variant-ligatures:normal;font-variant-caps:normal;font-variant-numeric:normal;font-feature-settings:normal;text-align:center;writing-mode:lr-tb;text-anchor:middle;fill:#000000;fill-opacity:1;stroke-width:0.32793552px"
         d="m 35.020912,286.37766 v 3.74051 h -1.870257 v -9.90211 h 1.870257 v 1.07604 q 0.294629,-0.62129 0.775004,-0.93513 0.480374,-0.31385 1.127278,-0.31385 1.229758,0 1.908687,0.98637 0.678929,0.98637 0.678929,2.77977 0,1.81902 -0.691739,2.79257 -0.685334,0.97356 -1.959927,0.97356 -0.576449,0 -1.037608,-0.29463 -0.454755,-0.30103 -0.800624,-0.9031 z m 2.613236,-2.58121 q 0,-1.03761 -0.34587,-1.62687 -0.345869,-0.58926 -0.954343,-0.58926 -0.608474,0 -0.960749,0.58926 -0.352274,0.58926 -0.352274,1.62687 0,1.03761 0.352274,1.62687 0.352275,0.58926 0.960749,0.58926 0.608474,0 0.954343,-0.58926 0.34587,-0.58926 0.34587,-1.62687 z" />
      <path
         id="path841"
         style="font-style:normal;font-variant:normal;font-weight:bold;font-stretch:normal;font-size:13.1174202px;font-family:'DejaVu Sans Mono';-inkscape-font-specification:'DejaVu Sans Mono, Bold';font-variant-ligatures:normal;font-variant-caps:normal;font-variant-numeric:normal;font-feature-settings:normal;text-align:center;writing-mode:lr-tb;text-anchor:middle;fill:#000000;fill-opacity:1;stroke-width:0.32793552px"
         d="m 44.026327,281.56751 q -0.672524,0 -1.056823,0.59567 -0.384299,0.58926 -0.384299,1.64608 0,1.05682 0.384299,1.65249 0.384299,0.58926 1.056823,0.58926 0.678929,0 1.063229,-0.58926 0.384299,-0.59567 0.384299,-1.65249 0,-1.05682 -0.384299,-1.64608 -0.3843,-0.59567 -1.063229,-0.59567 z m -3.317785,2.24175 q 0,-1.73575 0.896699,-2.74774 0.903104,-1.0184 2.421086,-1.0184 1.524388,0 2.421087,1.0184 0.903103,1.01199 0.903103,2.74774 0,1.73575 -0.903103,2.75414 -0.896699,1.01199 -2.421087,1.01199 -1.517982,0 -2.421086,-1.01199 -0.896699,-1.01839 -0.896699,-2.75414 z" />
      <path
         id="path843"
         style="fill:#008000;fill-opacity:1"
         d="m 54.319148,280.44023 v 1.63968 q -0.518804,-0.33306 -1.082443,-0.49959 -0.557235,-0.17293 -1.120874,-0.17293 -0.627689,0 -0.947938,0.18574 -0.32025,0.17934 -0.32025,0.53802 0,0.5124 1.370668,0.83265 l 0.07046,0.0192 0.538019,0.12809 q 1.024799,0.24339 1.498768,0.78782 0.480374,0.53802 0.480374,1.46034 0,1.10806 -0.730169,1.66529 -0.723764,0.55083 -2.184101,0.55083 -0.646904,0 -1.325833,-0.11529 -0.678929,-0.10888 -1.377073,-0.33306 v -1.63967 q 0.621284,0.35227 1.261783,0.53802 0.646904,0.18574 1.248973,0.18574 0.659714,0 0.999178,-0.19215 0.339465,-0.19215 0.339465,-0.55723 0,-0.35868 -0.24339,-0.55083 -0.236984,-0.19215 -1.140088,-0.40992 l -0.518804,-0.11529 q -1.076039,-0.24339 -1.569223,-0.7622 -0.493184,-0.5188 -0.493184,-1.38988 0,-1.03761 0.749384,-1.61406 0.749384,-0.57645 2.107242,-0.57645 0.608474,0 1.210543,0.10248 0.608474,0.0961 1.178518,0.29463 z" />
      <path
         id="path845"
         style="fill:#008000;fill-opacity:1"
         d="m 62.921051,287.03737 q -0.653309,0.26901 -1.332238,0.40352 -0.678929,0.1345 -1.434718,0.1345 -1.799802,0 -2.754145,-0.96075 -0.947939,-0.96715 -0.947939,-2.77976 0,-1.75497 0.915914,-2.77336 0.915913,-1.0184 2.497946,-1.0184 1.594842,0 2.472326,0.94794 0.883889,0.94154 0.883889,2.65807 v 0.7622 h -4.861388 q 0.0064,0.84546 0.499589,1.26178 0.493185,0.41633 1.473148,0.41633 0.646904,0 1.274593,-0.18575 0.627689,-0.18574 1.313023,-0.58926 z m -1.588437,-4.03514 q -0.01281,-0.74298 -0.3843,-1.12087 -0.365084,-0.3843 -1.082443,-0.3843 -0.646904,0 -1.031204,0.39711 -0.384299,0.3907 -0.454754,1.11447 z" />
      <path
         id="path847"
         style="fill:#008000;fill-opacity:1"
         d="m 70.811997,287.03737 q -0.653309,0.26901 -1.332238,0.40352 -0.678929,0.1345 -1.434718,0.1345 -1.799802,0 -2.754146,-0.96075 -0.947939,-0.96715 -0.947939,-2.77976 0,-1.75497 0.915914,-2.77336 0.915914,-1.0184 2.497946,-1.0184 1.594843,0 2.472327,0.94794 0.883888,0.94154 0.883888,2.65807 v 0.7622 h -4.861387 q 0.0064,0.84546 0.499589,1.26178 0.493184,0.41633 1.473148,0.41633 0.646904,0 1.274593,-0.18575 0.627689,-0.18574 1.313023,-0.58926 z m -1.588438,-4.03514 q -0.01281,-0.74298 -0.384299,-1.12087 -0.365085,-0.3843 -1.082444,-0.3843 -0.646904,0 -1.031203,0.39711 -0.3843,0.3907 -0.454755,1.11447 z" />
      <path
         id="path849"
         style="fill:#008000;fill-opacity:1"
         d="m 76.710994,281.23445 v -3.81097 h 1.870257 v 9.96617 h -1.870257 v -1.06323 q -0.301035,0.62128 -0.781409,0.93513 -0.473969,0.31384 -1.120873,0.31384 -1.229758,0 -1.908687,-0.98637 -0.678929,-0.98636 -0.678929,-2.77976 0,-1.81902 0.685334,-2.79258 0.691739,-0.97356 1.966332,-0.97356 0.576449,0 1.031203,0.30104 0.461159,0.29463 0.807029,0.89029 z m -2.613236,2.58762 q 0,1.03761 0.345869,1.62687 0.34587,0.58926 0.954344,0.58926 0.608474,0 0.960748,-0.58926 0.352275,-0.58926 0.352275,-1.62687 0,-1.03761 -0.352275,-1.62687 -0.352274,-0.58926 -0.960748,-0.58926 -0.608474,0 -0.954344,0.58926 -0.345869,0.58926 -0.345869,1.62687 z" />
    </g>
    <text
       id="text19855"
       y="280.87299"
       x="59.829121"
       style="font-style:normal;font-variant:normal;font-weight:300;font-stretch:normal;font-size:10.58333302px;line-height:125%;font-family:'URW Bookman';-inkscape-font-specification:'URW Bookman, Light';font-variant-ligatures:normal;font-variant-caps:normal;font-variant-numeric:normal;font-feature-settings:normal;text-align:center;letter-spacing:0px;word-spacing:0px;writing-mode:lr-tb;text-anchor:middle;fill:#000000;fill-opacity:1;stroke:none;stroke-width:0.26458332px;stroke-linecap:butt;stroke-linejoin:miter;stroke-opacity:1"
       xml:space="preserve"><tspan
         style="stroke-width:0.26458332px"
         y="289.78415"
         x="59.829121"
         id="tspan19853" /></text>
    <text
       id="text19880"
       y="273.6391"
       x="22.652994"
       style="font-style:normal;font-variant:normal;font-weight:300;font-stretch:normal;font-size:10.58333302px;line-height:125%;font-family:'URW Bookman';-inkscape-font-specification:'URW Bookman, Light';font-variant-ligatures:normal;font-variant-caps:normal;font-variant-numeric:normal;font-feature-settings:normal;text-align:center;letter-spacing:0px;word-spacing:0px;writing-mode:lr-tb;text-anchor:middle;fill:#000000;fill-opacity:1;stroke:none;stroke-width:0.26458332px;stroke-linecap:butt;stroke-linejoin:miter;stroke-opacity:1"
       xml:space="preserve"><tspan
         style="stroke-width:0.26458332px"
         y="282.55026"
         x="22.652994"
         id="tspan19878" /></text>
  </g>
</svg>
