<?xml version="1.0" encoding="utf-8"?>
<!-- Generator: Adobe Illustrator 15.0.0, SVG Export Plug-In . SVG Version: 6.00 Build 0)  -->
<!DOCTYPE svg PUBLIC "-//W3C//DTD SVG 1.1//EN" "http://www.w3.org/Graphics/SVG/1.1/DTD/svg11.dtd">
<svg version="1.1" id="Layer_1" xmlns="http://www.w3.org/2000/svg" xmlns:xlink="http://www.w3.org/1999/xlink" x="0px" y="0px"
	 width="300px" height="100px" viewBox="0 0 300 100" enable-background="new 0 0 300 100" xml:space="preserve">
<g>
	<path fill="#010101" d="M128.453,71.091c-1.173,0-2.34-0.146-3.498-0.438c-1.159-0.293-2.199-0.801-3.118-1.52
		c-0.92-0.72-1.672-1.68-2.26-2.879c-0.587-1.198-0.878-2.706-0.878-4.519c0-0.665,0.052-1.465,0.159-2.398
		c0.105-0.933,0.313-1.892,0.62-2.879c0.306-0.985,0.731-1.966,1.278-2.939c0.548-0.973,1.261-1.846,2.139-2.619
		c0.88-0.772,1.945-1.399,3.199-1.879c1.252-0.479,2.745-0.72,4.479-0.72c1.386,0,2.56,0.16,3.519,0.48
		c0.958,0.32,1.731,0.753,2.318,1.3c0.587,0.546,1.013,1.18,1.279,1.899c0.267,0.719,0.4,1.492,0.4,2.318
		c0,1.227-0.247,2.266-0.739,3.119c-0.494,0.853-1.133,1.565-1.921,2.14c-0.786,0.572-1.658,1.018-2.618,1.339
		c-0.958,0.319-1.906,0.566-2.838,0.739c-0.934,0.173-1.794,0.28-2.579,0.319c-0.787,0.04-1.395,0.06-1.819,0.06
		c0,0.507,0.072,1.009,0.221,1.5c0.145,0.494,0.365,0.927,0.659,1.301c0.293,0.373,0.681,0.679,1.158,0.918
		c0.479,0.24,1.066,0.36,1.76,0.36c0.692,0,1.232-0.113,1.62-0.34c0.386-0.227,0.698-0.48,0.938-0.761
		c0.24-0.279,0.446-0.532,0.621-0.759c0.172-0.226,0.405-0.34,0.7-0.34c0.133,0,0.365,0.033,0.698,0.1
		c0.334,0.068,0.674,0.208,1.021,0.421c0.346,0.214,0.652,0.506,0.918,0.88c0.267,0.373,0.4,0.854,0.4,1.439
		c0,0.772-0.239,1.438-0.72,1.998c-0.48,0.561-1.099,1.013-1.858,1.36c-0.759,0.346-1.605,0.6-2.54,0.759
		C130.24,71.012,129.333,71.091,128.453,71.091z M129.214,53.619c-0.587,0-1.087,0.166-1.501,0.5
		c-0.412,0.334-0.759,0.753-1.039,1.26c-0.28,0.506-0.493,1.066-0.639,1.679c-0.147,0.613-0.261,1.2-0.342,1.758
		c1.653-0.025,2.994-0.305,4.02-0.838c1.026-0.532,1.539-1.293,1.539-2.279c0-0.533-0.168-1.014-0.499-1.439
		C130.42,53.833,129.907,53.619,129.214,53.619z"/>
	<path fill="#010101" d="M154.322,48.301c2.507,0,4.392,0.774,5.657,2.319c1.266,1.546,1.899,3.985,1.899,7.316
		c0,2.08-0.237,3.934-0.719,5.558c-0.48,1.627-1.147,3.007-1.999,4.14c-0.854,1.133-1.853,1.992-2.999,2.579
		c-1.146,0.586-2.387,0.878-3.719,0.878c-1.414,0-2.519-0.306-3.318-0.919c-0.801-0.612-1.427-1.479-1.879-2.599
		c-0.081,0.96-0.146,1.692-0.201,2.199c-0.053,0.506-0.093,0.913-0.12,1.22c-0.026,0.307-0.047,0.579-0.06,0.819
		c-0.014,0.24-0.04,0.56-0.079,0.959c-0.041,0.4-0.087,0.947-0.142,1.64c-0.053,0.692-0.133,1.652-0.239,2.879
		c-0.026,0.321-0.094,0.533-0.199,0.64c-0.107,0.106-0.333,0.16-0.681,0.16h-1.438c-0.827,0-1.499-0.088-2.021-0.26
		c-0.52-0.174-0.932-0.42-1.239-0.739c-0.307-0.32-0.518-0.714-0.638-1.18c-0.122-0.467-0.18-1.006-0.18-1.62
		c0-0.267,0.039-0.986,0.118-2.159c0.081-1.173,0.182-2.578,0.3-4.218c0.12-1.64,0.254-3.405,0.399-5.297
		c0.148-1.894,0.288-3.699,0.422-5.419c0.132-1.719,0.245-3.245,0.338-4.578c0.094-1.332,0.167-2.252,0.221-2.759
		c0.026-0.585,0.094-0.933,0.201-1.039c0.079-0.08,0.292-0.12,0.639-0.12h1.56c1.438,0,2.483,0.3,3.139,0.899
		c0.653,0.6,0.979,1.313,0.979,2.14c0.612-1.227,1.406-2.105,2.381-2.639C151.678,48.568,152.884,48.301,154.322,48.301z
		 M151.404,53.619c-1.359,0-2.36,0.586-2.999,1.76c-0.64,1.172-0.96,2.771-0.96,4.797c0,0.693,0.046,1.374,0.139,2.039
		c0.094,0.667,0.262,1.268,0.501,1.8c0.239,0.534,0.566,0.959,0.98,1.28c0.412,0.319,0.939,0.479,1.58,0.479
		c1.144,0,2.104-0.56,2.878-1.68c0.772-1.12,1.159-2.879,1.159-5.279c0-0.665-0.046-1.311-0.141-1.938
		c-0.094-0.627-0.259-1.18-0.499-1.659c-0.239-0.48-0.574-0.866-0.999-1.161C152.617,53.766,152.071,53.619,151.404,53.619z"/>
	<path fill="#010101" d="M173.914,71.091c-1.838,0-3.365-0.259-4.577-0.779c-1.214-0.52-2.18-1.232-2.899-2.139
		c-0.719-0.906-1.227-1.966-1.52-3.18c-0.294-1.211-0.438-2.511-0.438-3.897c0-1.599,0.19-3.165,0.577-4.698
		c0.389-1.533,1.048-2.898,1.979-4.098c0.934-1.199,2.166-2.166,3.699-2.898c1.532-0.733,3.445-1.101,5.738-1.101
		c3.358,0,5.764,0.82,7.217,2.46c1.454,1.639,2.179,3.938,2.179,6.896c0,0.826-0.06,1.739-0.178,2.739
		c-0.122,1-0.348,1.992-0.681,2.979c-0.335,0.987-0.787,1.946-1.36,2.879c-0.574,0.934-1.3,1.759-2.178,2.479
		c-0.881,0.721-1.94,1.293-3.18,1.72C177.053,70.878,175.594,71.091,173.914,71.091z M175.793,53.619
		c-1.012,0-1.819,0.261-2.419,0.779c-0.599,0.521-1.053,1.146-1.358,1.879c-0.307,0.733-0.508,1.507-0.6,2.319
		c-0.094,0.813-0.141,1.5-0.141,2.059c0,1.761,0.28,3.054,0.839,3.879c0.562,0.826,1.36,1.24,2.401,1.24
		c0.932,0,1.699-0.293,2.297-0.88c0.601-0.586,1.065-1.293,1.4-2.12c0.332-0.826,0.56-1.691,0.68-2.599
		c0.119-0.906,0.181-1.665,0.181-2.279c0-1.332-0.248-2.378-0.74-3.138C177.838,53.999,176.993,53.619,175.793,53.619z"/>
	<path fill="#008000" d="M198.185,48.301c2.266,0,3.932,0.447,4.997,1.34c1.066,0.895,1.601,2.032,1.601,3.419
		c0,1.173-0.367,2.065-1.101,2.678c-0.731,0.615-1.792,0.92-3.179,0.92c-0.374,0-0.627-0.038-0.759-0.12
		c-0.134-0.079-0.199-0.226-0.199-0.44c0-0.238-0.021-0.512-0.061-0.818c-0.04-0.306-0.134-0.6-0.281-0.88
		c-0.145-0.279-0.373-0.513-0.679-0.699c-0.307-0.188-0.739-0.28-1.299-0.28c-0.747,0-1.347,0.18-1.8,0.54
		c-0.453,0.359-0.68,0.807-0.68,1.339c0,0.561,0.232,1.006,0.7,1.34c0.465,0.333,1.051,0.646,1.759,0.939
		c0.706,0.294,1.473,0.593,2.299,0.9c0.827,0.306,1.592,0.713,2.299,1.219c0.707,0.507,1.293,1.141,1.76,1.899
		c0.467,0.761,0.699,1.739,0.699,2.938c0,1.919-0.68,3.493-2.039,4.718c-1.358,1.228-3.398,1.839-6.116,1.839
		c-0.746,0-1.606-0.059-2.581-0.179c-0.973-0.121-1.898-0.306-2.778-0.56c-0.878-0.254-1.619-0.593-2.219-1.02
		c-0.6-0.428-0.899-0.96-0.899-1.601c0-0.239,0.047-0.532,0.141-0.879c0.092-0.347,0.238-0.68,0.439-1
		c0.199-0.319,0.44-0.593,0.719-0.819c0.28-0.226,0.62-0.34,1.02-0.34c0.32,0,0.614,0.08,0.881,0.24
		c0.267,0.159,0.579,0.326,0.939,0.499c0.36,0.174,0.806,0.341,1.338,0.5c0.534,0.16,1.241,0.24,2.12,0.24
		c0.668,0,1.261-0.08,1.779-0.24c0.52-0.159,0.78-0.52,0.78-1.079c0-0.506-0.214-0.912-0.641-1.22
		c-0.427-0.306-0.967-0.594-1.619-0.86c-0.653-0.265-1.359-0.552-2.118-0.858c-0.761-0.307-1.467-0.713-2.121-1.22
		c-0.652-0.507-1.191-1.153-1.618-1.939s-0.64-1.806-0.64-3.059c0-1.359,0.273-2.512,0.819-3.459
		c0.545-0.945,1.254-1.713,2.119-2.299c0.866-0.586,1.846-1.006,2.938-1.26C195.999,48.428,197.092,48.301,198.185,48.301z"/>
	<path fill="#008000" d="M216.897,71.091c-1.175,0-2.342-0.146-3.5-0.438c-1.16-0.293-2.2-0.801-3.118-1.52
		c-0.92-0.72-1.673-1.68-2.26-2.879c-0.586-1.198-0.878-2.706-0.878-4.519c0-0.665,0.051-1.465,0.159-2.398
		c0.105-0.933,0.313-1.892,0.619-2.879c0.306-0.985,0.733-1.966,1.278-2.939c0.548-0.973,1.261-1.846,2.14-2.619
		c0.88-0.772,1.946-1.399,3.2-1.879c1.253-0.479,2.745-0.72,4.478-0.72c1.386,0,2.559,0.16,3.519,0.48
		c0.959,0.32,1.733,0.753,2.319,1.3c0.586,0.546,1.013,1.18,1.279,1.899c0.267,0.719,0.399,1.492,0.399,2.318
		c0,1.227-0.245,2.266-0.739,3.119c-0.494,0.853-1.133,1.565-1.92,2.14c-0.785,0.572-1.66,1.018-2.619,1.339
		c-0.958,0.319-1.905,0.566-2.838,0.739c-0.934,0.173-1.793,0.28-2.579,0.319c-0.788,0.04-1.393,0.06-1.818,0.06
		c0,0.507,0.072,1.009,0.22,1.5c0.146,0.494,0.365,0.927,0.659,1.301c0.292,0.373,0.68,0.679,1.16,0.918
		c0.479,0.24,1.066,0.36,1.759,0.36s1.232-0.113,1.618-0.34c0.388-0.227,0.701-0.48,0.94-0.761c0.239-0.279,0.446-0.532,0.619-0.759
		c0.173-0.226,0.406-0.34,0.7-0.34c0.135,0,0.367,0.033,0.699,0.1c0.333,0.068,0.673,0.208,1.02,0.421
		c0.347,0.214,0.652,0.506,0.919,0.88c0.268,0.373,0.402,0.854,0.402,1.439c0,0.772-0.242,1.438-0.722,1.998
		c-0.479,0.561-1.099,1.013-1.858,1.36c-0.76,0.346-1.605,0.6-2.539,0.759C218.683,71.012,217.776,71.091,216.897,71.091z
		 M217.656,53.619c-0.587,0-1.088,0.166-1.5,0.5c-0.413,0.334-0.76,0.753-1.039,1.26c-0.281,0.506-0.493,1.066-0.639,1.679
		c-0.148,0.613-0.262,1.2-0.341,1.758c1.653-0.025,2.993-0.305,4.02-0.838c1.024-0.532,1.539-1.293,1.539-2.279
		c0-0.533-0.169-1.014-0.501-1.439C218.862,53.833,218.35,53.619,217.656,53.619z"/>
	<path fill="#008000" d="M238.169,71.091c-1.174,0-2.339-0.146-3.5-0.438c-1.16-0.293-2.198-0.801-3.118-1.52
		c-0.92-0.72-1.673-1.68-2.26-2.879c-0.586-1.198-0.878-2.706-0.878-4.519c0-0.665,0.053-1.465,0.159-2.398
		c0.107-0.933,0.313-1.892,0.619-2.879c0.306-0.985,0.733-1.966,1.278-2.939c0.548-0.973,1.261-1.846,2.14-2.619
		c0.881-0.772,1.945-1.399,3.2-1.879c1.252-0.479,2.745-0.72,4.479-0.72c1.386,0,2.56,0.16,3.52,0.48s1.731,0.753,2.319,1.3
		c0.585,0.546,1.012,1.18,1.278,1.899c0.267,0.719,0.4,1.492,0.4,2.318c0,1.227-0.248,2.266-0.739,3.119
		c-0.495,0.853-1.134,1.565-1.923,2.14c-0.785,0.572-1.656,1.018-2.617,1.339c-0.958,0.319-1.905,0.566-2.838,0.739
		c-0.935,0.173-1.793,0.28-2.578,0.319c-0.788,0.04-1.394,0.06-1.82,0.06c0,0.507,0.073,1.009,0.22,1.5
		c0.146,0.494,0.366,0.927,0.66,1.301c0.292,0.373,0.68,0.679,1.159,0.918c0.479,0.24,1.065,0.36,1.76,0.36
		c0.692,0,1.232-0.113,1.618-0.34c0.388-0.227,0.702-0.48,0.939-0.761c0.242-0.279,0.448-0.532,0.619-0.759
		c0.174-0.226,0.407-0.34,0.701-0.34c0.133,0,0.366,0.033,0.7,0.1c0.332,0.068,0.671,0.208,1.021,0.421
		c0.347,0.214,0.65,0.506,0.918,0.88c0.267,0.373,0.398,0.854,0.398,1.439c0,0.772-0.24,1.438-0.717,1.998
		c-0.481,0.561-1.101,1.013-1.86,1.36c-0.76,0.346-1.605,0.6-2.54,0.759C239.955,71.012,239.048,71.091,238.169,71.091z
		 M238.929,53.619c-0.587,0-1.087,0.166-1.5,0.5s-0.76,0.753-1.039,1.26c-0.28,0.506-0.495,1.066-0.639,1.679
		c-0.148,0.613-0.263,1.2-0.34,1.758c1.65-0.025,2.991-0.305,4.017-0.838c1.026-0.532,1.539-1.293,1.539-2.279
		c0-0.533-0.167-1.014-0.498-1.439C240.135,53.833,239.622,53.619,238.929,53.619z"/>
	<path fill="#008000" d="M257.521,71.091c-1.039,0-2.034-0.185-2.979-0.559c-0.947-0.373-1.773-0.959-2.479-1.76
		c-0.708-0.8-1.268-1.812-1.681-3.039c-0.413-1.226-0.62-2.704-0.62-4.438c0-0.772,0.055-1.633,0.161-2.579
		c0.105-0.945,0.293-1.899,0.56-2.858c0.265-0.961,0.641-1.893,1.119-2.799c0.48-0.907,1.085-1.712,1.819-2.419
		s1.613-1.272,2.64-1.699c1.024-0.427,2.231-0.641,3.618-0.641c1.332,0,2.404,0.234,3.22,0.7c0.811,0.467,1.325,1.272,1.538,2.419
		c0.054-1.04,0.106-1.945,0.159-2.719c0.054-0.772,0.101-1.493,0.141-2.159c0.041-0.666,0.087-1.333,0.14-1.999
		s0.107-1.426,0.16-2.279c0.027-0.586,0.094-0.933,0.199-1.039c0.054-0.054,0.12-0.087,0.201-0.101
		c0.079-0.014,0.226-0.02,0.439-0.02h1.562c0.798,0,1.465,0.093,1.998,0.279s0.958,0.44,1.278,0.76
		c0.321,0.32,0.547,0.688,0.682,1.1c0.131,0.413,0.199,0.847,0.199,1.3c-0.107,1.333-0.199,2.553-0.281,3.657
		c-0.078,1.107-0.174,2.367-0.278,3.78c-0.107,1.411-0.215,2.872-0.321,4.376c-0.107,1.508-0.213,3.001-0.32,4.48
		c-0.107,1.479-0.214,2.838-0.32,4.078c-0.104,1.238-0.193,2.306-0.258,3.198c-0.067,0.894-0.113,1.486-0.142,1.778
		c-0.053,0.321-0.119,0.534-0.198,0.641c-0.081,0.107-0.308,0.16-0.681,0.16h-1.439c-0.56,0-1.086-0.046-1.58-0.141
		c-0.492-0.093-0.919-0.253-1.278-0.479c-0.359-0.226-0.64-0.532-0.84-0.92c-0.2-0.386-0.301-0.886-0.301-1.498
		c-0.479,1.012-1.206,1.839-2.178,2.478C260.206,70.771,258.986,71.091,257.521,71.091z M261,53.619
		c-1.359,0-2.366,0.593-3.021,1.78c-0.653,1.186-0.979,2.778-0.979,4.776c0,0.693,0.046,1.374,0.14,2.039
		c0.094,0.667,0.26,1.268,0.5,1.8c0.239,0.534,0.565,0.959,0.979,1.28c0.412,0.319,0.94,0.479,1.579,0.479
		c1.146,0,2.106-0.56,2.88-1.68c0.772-1.12,1.159-2.879,1.159-5.279c0-0.665-0.04-1.311-0.121-1.938
		c-0.08-0.627-0.24-1.18-0.479-1.659c-0.239-0.48-0.573-0.866-0.999-1.161C262.212,53.766,261.666,53.619,261,53.619z"/>
	<path fill="#010101" d="M115.818,66.993c-0.319-0.492-0.787-1.193-1.398-2.099l-3.358-4.798c1.812-0.854,3.131-2.094,3.958-3.72
		c0.826-1.625,1.239-3.478,1.239-5.557c0-1.359-0.181-2.585-0.54-3.679c-0.359-1.093-0.919-2.025-1.68-2.799
		c-0.76-0.772-1.752-1.372-2.978-1.799c-0.684-0.237-1.445-0.401-2.276-0.507l0.007-0.003c-2.727-0.491-9.6,0.271-15.012,0.136
		c-0.412-0.011-0.396,0.624-0.014,0.782c1.947,0.811,2.727,3.25,2.769,5.216c-0.015,0.289-0.031,0.578-0.048,0.893
		c-0.094,1.679-0.248,3.865-0.462,6.558c-0.104,1.28-0.205,2.539-0.298,3.778c-0.094,1.239-0.181,2.379-0.26,3.419
		c-0.082,1.038-0.141,1.94-0.18,2.699c-0.04,0.759-0.062,1.3-0.062,1.618c0,1.173,0.313,2.06,0.941,2.659
		c0.625,0.601,1.697,0.9,3.219,0.9h1.997c0.24,0,0.401-0.046,0.481-0.141c0.079-0.093,0.132-0.245,0.16-0.459
		c0-0.106,0.024-0.435,0.078-0.98s0.107-1.239,0.161-2.078c0.054-0.841,0.119-1.793,0.199-2.86c0.081-1.064,0.161-2.185,0.239-3.358
		c0.613,0.135,1.4,0.228,2.36,0.28c0.319,1.307,0.659,2.56,1.02,3.759s0.784,2.26,1.279,3.178c0.493,0.92,1.051,1.66,1.68,2.22
		c0.625,0.56,1.364,0.839,2.219,0.839c0.772,0,1.472-0.119,2.1-0.359c0.626-0.24,1.158-0.526,1.599-0.858
		c0.44-0.333,0.772-0.667,0.999-0.999c0.229-0.334,0.341-0.595,0.341-0.781C116.299,67.853,116.139,67.486,115.818,66.993z
		 M109.322,52.739c-0.094,0.533-0.288,1.034-0.581,1.499c-0.294,0.468-0.699,0.861-1.22,1.18c-0.519,0.319-1.193,0.479-2.018,0.479
		c-0.695,0-1.508-0.106-2.44-0.319c0.106-1.467,0.194-2.846,0.26-4.138c0.066-1.293,0.127-2.405,0.182-3.339
		c0.452-0.053,0.879-0.101,1.277-0.14c0.401-0.041,0.76-0.061,1.081-0.061c1.331,0,2.266,0.294,2.799,0.88
		c0.532,0.587,0.799,1.426,0.799,2.519C109.461,51.726,109.415,52.206,109.322,52.739z"/>
	<path fill="#010101" d="M52.743,75.628c13.444,0,24.34-2.17,24.34-4.845l-0.287-7.021c-4.57,3.917-21.792,4.094-24.053,4.094
		c-2.259,0-19.479-0.13-24.05-4.048l-0.289,6.975C28.404,73.458,39.302,75.628,52.743,75.628z"/>
	<path fill="#010101" d="M28.404,74.396l0.303,6.987c0,2.676,10.595,4.831,24.036,4.831c13.444,0,24.009-2.089,24.009-4.764
		l0.331-7.055c-4.569,3.918-22.079,4.049-24.34,4.049C50.484,78.444,32.974,78.313,28.404,74.396z"/>
	<path fill="#0E8036" d="M50.932,32.171"/>
	<path fill="#008000" d="M44.011,29.466c2.562,2.56,3.413,6.179,2.562,9.442c-3.271,0.855-6.889,0.003-9.448-2.555
		c-2.561-2.558-3.41-6.178-2.558-9.445C37.834,26.056,41.452,26.905,44.011,29.466z"/>
	<path fill="#008000" d="M54.215,19.462c-4.171,4.673-5.288,11.01-3.496,16.568c5.727,1.16,11.896-0.667,16.07-5.338
		c4.17-4.673,5.29-11.009,3.497-16.568C64.558,12.966,58.388,14.792,54.215,19.462z"/>
	<path fill="#010101" d="M52.744,65.151c12.754,0,19.891-1.904,21.561-3.146c-3.156-1.746-11.521-2.998-21.369-3.015
		c-0.978-2.271-1.683-4.815-2.105-7.455c4.654,0.126,9.317-0.325,14.277-1.6c0.895,1.292,2.384,2.14,4.072,2.14
		c2.737,0,4.955-2.218,4.955-4.953s-2.218-4.953-4.955-4.953c-2.162,0-3.996,1.389-4.671,3.323
		c-4.559,1.231-9.233,1.777-14.113,1.585c-0.384-10.746,4.026-20.646,11.62-27.518c-6.444,5.343-11.37,12.484-13.994,20.706
		c-1.024-2.361-2.451-4.33-4.661-5.539c2.739,3.851,3.606,8.897,3.112,12.027c-1.839-0.228-3.644-0.562-5.409-0.995
		c-0.592-2.071-2.495-3.59-4.759-3.59c-2.736,0-4.954,2.218-4.954,4.953s2.218,4.953,4.954,4.953c1.601,0,3.019-0.761,3.924-1.938
		c1.883,0.452,3.803,0.804,5.76,1.041c-0.159,2.686-0.071,5.317,0.254,8.001c-6.998,0.412-12.604,1.469-15.059,2.826
		C32.854,63.247,39.992,65.151,52.744,65.151z"/>
</g>
</svg>
